<svg width="41" height="26" viewBox="0 0 41 26" fill="none" xmlns="http://www.w3.org/2000/svg">
<rect x="3.60022" y="1.33337" width="26.5" height="18.6667" rx="1" stroke="black" stroke-width="1.5"/>
<path d="M4.92523 6.66675H28.7752" stroke="black" stroke-width="1.5" stroke-linecap="square"/>
<rect x="40.7002" y="4" width="21.3333" height="21.2" rx="10.6" transform="rotate(90 40.7002 4)" fill="white"/>
<path d="M34.2182 22.0935C33.4864 22.8161 32.6472 23.421 31.7304 23.8868C31.6246 23.9455 31.5081 23.9823 31.3878 23.995C31.2675 24.0077 31.1459 23.9961 31.0302 23.9608C30.9144 23.9255 30.807 23.8673 30.7143 23.7896C30.6215 23.712 30.5454 23.6164 30.4903 23.5087C30.4353 23.4009 30.4025 23.2832 30.3939 23.1625C30.3853 23.0418 30.4011 22.9207 30.4404 22.8062C30.4796 22.6918 30.5415 22.5864 30.6223 22.4964C30.7031 22.4063 30.8012 22.3335 30.9107 22.2822C31.6594 21.9016 32.3449 21.4078 32.943 20.8182C33.8241 19.9372 34.4838 18.8599 34.8682 17.6746C35.2526 16.4894 35.3508 15.2299 35.1546 13.9994C34.9584 12.7689 34.4735 11.6024 33.7396 10.5954C33.0057 9.58849 32.0437 8.76979 30.9324 8.20639C30.8267 8.15296 30.7326 8.07924 30.6554 7.98944C30.5783 7.89964 30.5195 7.79551 30.4826 7.68301C30.4456 7.57051 30.4312 7.45183 30.4401 7.33376C30.4491 7.21568 30.4812 7.10052 30.5346 6.99484C30.588 6.88917 30.6617 6.79506 30.7515 6.71787C30.8413 6.64069 30.9454 6.58195 31.0579 6.54501C31.1704 6.50806 31.2891 6.49364 31.4071 6.50256C31.5252 6.51149 31.6404 6.54358 31.746 6.59701C33.1118 7.28894 34.2942 8.29471 35.1963 9.53188C36.0983 10.7691 36.6944 12.2024 36.9356 13.7144C37.1768 15.2265 37.0563 16.7742 36.584 18.2306C36.1116 19.6871 35.3009 21.0109 34.2182 22.0935ZM30.5298 19.567C29.9925 20.1055 29.3315 20.5478 28.6285 20.8555C28.4113 20.9423 28.1688 20.9412 27.9524 20.8526C27.736 20.7639 27.5625 20.5946 27.4685 20.3804C27.3746 20.1661 27.3676 19.9238 27.4491 19.7045C27.5305 19.4853 27.694 19.3062 27.905 19.2053C28.4074 18.9862 28.8653 18.6765 29.2558 18.2918C29.6567 17.8909 29.9747 17.4149 30.1917 16.8911C30.4087 16.3673 30.5203 15.8059 30.5203 15.2389C30.5203 14.6719 30.4087 14.1105 30.1917 13.5867C29.9747 13.0628 29.6567 12.5869 29.2558 12.186C28.8821 11.8134 28.4266 11.5105 27.9206 11.2893C27.7014 11.1935 27.5293 11.0146 27.4421 10.7919C27.3549 10.5692 27.3597 10.321 27.4555 10.1018C27.5513 9.88268 27.7302 9.71055 27.9529 9.62332C28.1755 9.53609 28.4238 9.5409 28.6429 9.63669C29.3458 9.94041 29.9858 10.3729 30.5298 10.9119C31.6774 12.0597 32.3221 13.6163 32.3221 15.2395C32.3221 16.8626 31.6774 18.4193 30.5298 19.567ZM27.381 16.4636C27.2135 16.631 27.0147 16.7638 26.796 16.8544C26.5772 16.9449 26.3428 16.9915 26.106 16.9914C25.8692 16.9914 25.6348 16.9447 25.4161 16.854C25.1974 16.7634 24.9986 16.6305 24.8313 16.463C24.6639 16.2956 24.5311 16.0968 24.4406 15.878C24.35 15.6592 24.3035 15.4248 24.3035 15.188C24.3036 14.9512 24.3503 14.7167 24.4409 14.498C24.5316 14.2793 24.6644 14.0805 24.8319 13.9132C25.1701 13.5749 25.6287 13.3849 26.107 13.3849C26.5853 13.3849 27.044 13.5749 27.3822 13.9132C27.7204 14.2514 27.9103 14.7101 27.9103 15.1884C27.9103 15.6667 27.7204 16.1254 27.3822 16.4636L27.381 16.4636Z" fill="black"/>
</svg>
