<svg width="100" height="100" viewBox="0 0 100 100" fill="none" xmlns="http://www.w3.org/2000/svg">
<path d="M10.1972 40.5099L40.5099 10.1972C45.7511 4.95596 54.2488 4.95596 59.4901 10.1972L89.8028 40.5099C95.044 45.7511 95.044 54.2489 89.8028 59.4901L59.4901 89.8028C54.2488 95.044 45.7511 95.044 40.5099 89.8028L10.1972 59.4901C4.95596 54.2488 4.95596 45.7511 10.1972 40.5099Z" stroke="#EE7233"/>
<path d="M58.8388 35.34H41.1611C37.9067 35.34 35.2686 37.9782 35.2686 41.2326V55.964C35.2686 59.2183 37.9067 61.8565 41.1611 61.8565H58.8388C62.0931 61.8565 64.7313 59.2183 64.7313 55.964V41.2326C64.7313 37.9782 62.0931 35.34 58.8388 35.34Z" stroke="black" stroke-width="1.4" stroke-linecap="round" stroke-linejoin="round"/>
<path d="M35.2686 44.1788H64.7313M44.1074 32.3937V38.2863V32.3937ZM55.8925 32.3937V38.2863V32.3937Z" stroke="black" stroke-width="1.4" stroke-linecap="round" stroke-linejoin="round"/>
<path d="M57.5762 54.7012H52.5254" stroke="black" stroke-width="1.4" stroke-linecap="round"/>
</svg>
