<svg width="32" height="24" viewBox="0 0 32 24" fill="none" xmlns="http://www.w3.org/2000/svg">
  <mask id="path-1-inside-1_1840_663" fill="white">
    <path fill-rule="evenodd" clip-rule="evenodd"
      d="M27.7638 0H4.57629C4.02738 0 3.58252 0.442538 3.58252 0.988576C3.58252 1.53461 4.02738 1.97715 4.57629 1.97715H27.7638C28.3127 1.97715 28.7575 1.53461 28.7575 0.988576C28.7575 0.442538 28.3127 0 27.7638 0ZM29.7563 4.50002H2.59374C1.68051 4.50002 0.9375 5.29528 0.9375 6.27274V9.44522V19.0042V22.2273C0.9375 23.2048 1.68051 24 2.59374 24H29.7563C30.6695 24 31.4125 23.2048 31.4125 22.2273V19.0167L31.4126 19.0041L31.4125 18.9916V6.27274C31.4125 5.29528 30.6695 4.50002 29.7563 4.50002ZM29.425 18.0156V10.4338H29.4248C27.5983 10.4338 26.1123 8.95565 26.1123 7.13866V6.62727H6.56877V7.13862C6.56877 8.95555 5.08281 10.4338 3.25628 10.4338H2.92498V18.0156H3.25628C5.08276 18.0156 6.56877 19.4939 6.56883 21.3109V21.8727H25.7812V21.3108C25.7812 19.4939 27.2672 18.0156 29.0937 18.0156H29.425ZM27.7688 21.8727H29.425V19.9927H29.0938C28.3508 19.9927 27.7688 20.5717 27.7688 21.3108V21.8727ZM2.92498 21.8727V19.9928H3.25628C3.99929 19.9928 4.58129 20.5717 4.58129 21.3109V21.8727H2.92498ZM29.425 8.45674V6.62727H28.0998V7.13866C28.0998 7.87778 28.6818 8.45674 29.4249 8.45674H29.425ZM4.58123 7.13862V6.62727H2.92498V8.4567H3.25622C3.99923 8.4567 4.58123 7.87774 4.58123 7.13862ZM10.7094 14.1923C10.7094 11.194 13.1613 8.75521 16.175 8.75521C19.1887 8.75521 21.6406 11.1943 21.6406 14.1923C21.6406 17.1902 19.1887 19.6293 16.175 19.6293C13.1613 19.6293 10.7094 17.1902 10.7094 14.1923ZM12.6969 14.1922C12.6969 16.1002 14.257 17.6522 16.175 17.6522C18.093 17.6522 19.6531 16.1002 19.6531 14.1922C19.6531 12.2843 18.093 10.732 16.175 10.732C14.257 10.732 12.6969 12.2843 12.6969 14.1922Z" />
  </mask>
  <path fill-rule="evenodd" clip-rule="evenodd"
    d="M27.7638 0H4.57629C4.02738 0 3.58252 0.442538 3.58252 0.988576C3.58252 1.53461 4.02738 1.97715 4.57629 1.97715H27.7638C28.3127 1.97715 28.7575 1.53461 28.7575 0.988576C28.7575 0.442538 28.3127 0 27.7638 0ZM29.7563 4.50002H2.59374C1.68051 4.50002 0.9375 5.29528 0.9375 6.27274V9.44522V19.0042V22.2273C0.9375 23.2048 1.68051 24 2.59374 24H29.7563C30.6695 24 31.4125 23.2048 31.4125 22.2273V19.0167L31.4126 19.0041L31.4125 18.9916V6.27274C31.4125 5.29528 30.6695 4.50002 29.7563 4.50002ZM29.425 18.0156V10.4338H29.4248C27.5983 10.4338 26.1123 8.95565 26.1123 7.13866V6.62727H6.56877V7.13862C6.56877 8.95555 5.08281 10.4338 3.25628 10.4338H2.92498V18.0156H3.25628C5.08276 18.0156 6.56877 19.4939 6.56883 21.3109V21.8727H25.7812V21.3108C25.7812 19.4939 27.2672 18.0156 29.0937 18.0156H29.425ZM27.7688 21.8727H29.425V19.9927H29.0938C28.3508 19.9927 27.7688 20.5717 27.7688 21.3108V21.8727ZM2.92498 21.8727V19.9928H3.25628C3.99929 19.9928 4.58129 20.5717 4.58129 21.3109V21.8727H2.92498ZM29.425 8.45674V6.62727H28.0998V7.13866C28.0998 7.87778 28.6818 8.45674 29.4249 8.45674H29.425ZM4.58123 7.13862V6.62727H2.92498V8.4567H3.25622C3.99923 8.4567 4.58123 7.87774 4.58123 7.13862ZM10.7094 14.1923C10.7094 11.194 13.1613 8.75521 16.175 8.75521C19.1887 8.75521 21.6406 11.1943 21.6406 14.1923C21.6406 17.1902 19.1887 19.6293 16.175 19.6293C13.1613 19.6293 10.7094 17.1902 10.7094 14.1923ZM12.6969 14.1922C12.6969 16.1002 14.257 17.6522 16.175 17.6522C18.093 17.6522 19.6531 16.1002 19.6531 14.1922C19.6531 12.2843 18.093 10.732 16.175 10.732C14.257 10.732 12.6969 12.2843 12.6969 14.1922Z"
    fill="black" />
  <path
    d="M31.4125 19.0167L31.2125 19.0154V19.0167H31.4125ZM31.4126 19.0041L31.6126 19.0054L31.6126 19.0029L31.4126 19.0041ZM31.4125 18.9916H31.2125L31.2125 18.9929L31.4125 18.9916ZM29.425 10.4338H29.625V10.2338H29.425V10.4338ZM29.425 18.0156V18.2156H29.625V18.0156H29.425ZM26.1123 6.62727H26.3123V6.42727H26.1123V6.62727ZM6.56877 6.62727V6.42727H6.36877V6.62727H6.56877ZM2.92498 10.4338V10.2338H2.72498V10.4338H2.92498ZM2.92498 18.0156H2.72498V18.2156H2.92498V18.0156ZM6.56883 21.3109H6.76883V21.3109L6.56883 21.3109ZM6.56883 21.8727H6.36883V22.0727H6.56883V21.8727ZM25.7812 21.8727V22.0727H25.9812V21.8727H25.7812ZM29.425 21.8727V22.0727H29.625V21.8727H29.425ZM27.7688 21.8727H27.5688V22.0727H27.7688V21.8727ZM29.425 19.9927H29.625V19.7927H29.425V19.9927ZM2.92498 19.9928V19.7928H2.72498V19.9928H2.92498ZM2.92498 21.8727H2.72498V22.0727H2.92498V21.8727ZM4.58129 21.8727V22.0727H4.78129V21.8727H4.58129ZM29.425 6.62727H29.625V6.42727H29.425V6.62727ZM29.425 8.45674V8.65674H29.625V8.45674H29.425ZM28.0998 6.62727V6.42727H27.8998V6.62727H28.0998ZM4.58123 6.62727H4.78123V6.42727H4.58123V6.62727ZM2.92498 6.62727V6.42727H2.72498V6.62727H2.92498ZM2.92498 8.4567H2.72498V8.6567H2.92498V8.4567ZM4.57629 0.2H27.7638V-0.2H4.57629V0.2ZM3.78252 0.988576C3.78252 0.553982 4.13685 0.2 4.57629 0.2V-0.2C3.91792 -0.2 3.38252 0.331094 3.38252 0.988576H3.78252ZM4.57629 1.77715C4.13685 1.77715 3.78252 1.42317 3.78252 0.988576H3.38252C3.38252 1.64606 3.91792 2.17715 4.57629 2.17715V1.77715ZM27.7638 1.77715H4.57629V2.17715H27.7638V1.77715ZM28.5575 0.988576C28.5575 1.42317 28.2032 1.77715 27.7638 1.77715V2.17715C28.4221 2.17715 28.9575 1.64606 28.9575 0.988576H28.5575ZM27.7638 0.2C28.2032 0.2 28.5575 0.553974 28.5575 0.988576H28.9575C28.9575 0.331102 28.4222 -0.2 27.7638 -0.2V0.2ZM2.59374 4.70002H29.7563V4.30002H2.59374V4.70002ZM1.1375 6.27274C1.1375 5.39272 1.80355 4.70002 2.59374 4.70002V4.30002C1.55746 4.30002 0.7375 5.19784 0.7375 6.27274H1.1375ZM1.1375 9.44522V6.27274H0.7375V9.44522H1.1375ZM1.1375 19.0042V9.44522H0.7375V19.0042H1.1375ZM1.1375 22.2273V19.0042H0.7375V22.2273H1.1375ZM2.59374 23.8C1.80355 23.8 1.1375 23.1073 1.1375 22.2273H0.7375C0.7375 23.3022 1.55746 24.2 2.59374 24.2V23.8ZM29.7563 23.8H2.59374V24.2H29.7563V23.8ZM31.2125 22.2273C31.2125 23.1073 30.5464 23.8 29.7563 23.8V24.2C30.7925 24.2 31.6125 23.3022 31.6125 22.2273H31.2125ZM31.2125 19.0167V22.2273H31.6125V19.0167H31.2125ZM31.2126 19.0029L31.2125 19.0154L31.6125 19.0179L31.6126 19.0054L31.2126 19.0029ZM31.2125 18.9929L31.2126 19.0054L31.6126 19.0029L31.6125 18.9904L31.2125 18.9929ZM31.2125 6.27274V18.9916H31.6125V6.27274H31.2125ZM29.7563 4.70002C30.5464 4.70002 31.2125 5.39272 31.2125 6.27274H31.6125C31.6125 5.19784 30.7925 4.30002 29.7563 4.30002V4.70002ZM29.225 10.4338V18.0156H29.625V10.4338H29.225ZM29.4248 10.6338H29.425V10.2338H29.4248V10.6338ZM25.9123 7.13866C25.9123 9.0671 27.4889 10.6338 29.4248 10.6338V10.2338C27.7078 10.2338 26.3123 8.84421 26.3123 7.13866H25.9123ZM25.9123 6.62727V7.13866H26.3123V6.62727H25.9123ZM6.56877 6.82727H26.1123V6.42727H6.56877V6.82727ZM6.76877 7.13862V6.62727H6.36877V7.13862H6.76877ZM3.25628 10.6338C5.19228 10.6338 6.76877 9.06699 6.76877 7.13862H6.36877C6.36877 8.84411 4.97334 10.2338 3.25628 10.2338V10.6338ZM2.92498 10.6338H3.25628V10.2338H2.92498V10.6338ZM3.12498 18.0156V10.4338H2.72498V18.0156H3.12498ZM3.25628 17.8156H2.92498V18.2156H3.25628V17.8156ZM6.76883 21.3109C6.76876 19.3824 5.19223 17.8156 3.25628 17.8156V18.2156C4.97328 18.2156 6.36877 19.6053 6.36883 21.3109L6.76883 21.3109ZM6.76883 21.8727V21.3109H6.36883V21.8727H6.76883ZM25.7812 21.6727H6.56883V22.0727H25.7812V21.6727ZM25.5812 21.3108V21.8727H25.9812V21.3108H25.5812ZM29.0937 17.8156C27.1577 17.8156 25.5812 19.3824 25.5812 21.3108H25.9812C25.9812 19.6053 27.3767 18.2156 29.0937 18.2156V17.8156ZM29.425 17.8156H29.0937V18.2156H29.425V17.8156ZM29.425 21.6727H27.7688V22.0727H29.425V21.6727ZM29.225 19.9927V21.8727H29.625V19.9927H29.225ZM29.0938 20.1927H29.425V19.7927H29.0938V20.1927ZM27.9688 21.3108C27.9688 20.6831 28.4603 20.1927 29.0938 20.1927V19.7927C28.2413 19.7927 27.5688 20.4602 27.5688 21.3108H27.9688ZM27.9688 21.8727V21.3108H27.5688V21.8727H27.9688ZM2.72498 19.9928V21.8727H3.12498V19.9928H2.72498ZM3.25628 19.7928H2.92498V20.1928H3.25628V19.7928ZM4.78129 21.3109C4.78129 20.4603 4.10875 19.7928 3.25628 19.7928V20.1928C3.88982 20.1928 4.38129 20.6832 4.38129 21.3109H4.78129ZM4.78129 21.8727V21.3109H4.38129V21.8727H4.78129ZM2.92498 22.0727H4.58129V21.6727H2.92498V22.0727ZM29.225 6.62727V8.45674H29.625V6.62727H29.225ZM28.0998 6.82727H29.425V6.42727H28.0998V6.82727ZM28.2998 7.13866V6.62727H27.8998V7.13866H28.2998ZM29.4249 8.25674C28.7913 8.25674 28.2998 7.76634 28.2998 7.13866H27.8998C27.8998 7.98923 28.5724 8.65674 29.4249 8.65674V8.25674ZM29.425 8.25674H29.4249V8.65674H29.425V8.25674ZM4.38123 6.62727V7.13862H4.78123V6.62727H4.38123ZM2.92498 6.82727H4.58123V6.42727H2.92498V6.82727ZM3.12498 8.4567V6.62727H2.72498V8.4567H3.12498ZM3.25622 8.2567H2.92498V8.6567H3.25622V8.2567ZM4.38123 7.13862C4.38123 7.7663 3.88976 8.2567 3.25622 8.2567V8.6567C4.10869 8.6567 4.78123 7.98919 4.78123 7.13862H4.38123ZM16.175 8.55521C13.0518 8.55521 10.5094 11.0825 10.5094 14.1923H10.9094C10.9094 11.3054 13.2708 8.95521 16.175 8.95521V8.55521ZM21.8406 14.1923C21.8406 11.0828 19.2982 8.55521 16.175 8.55521V8.95521C19.0792 8.95521 21.4406 11.3057 21.4406 14.1923H21.8406ZM16.175 19.8293C19.2982 19.8293 21.8406 17.3017 21.8406 14.1923H21.4406C21.4406 17.0788 19.0792 19.4293 16.175 19.4293V19.8293ZM10.5094 14.1923C10.5094 17.3017 13.0518 19.8293 16.175 19.8293V19.4293C13.2708 19.4293 10.9094 17.0788 10.9094 14.1923H10.5094ZM16.175 17.4522C14.3665 17.4522 12.8969 15.9887 12.8969 14.1922H12.4969C12.4969 16.2116 14.1476 17.8522 16.175 17.8522V17.4522ZM19.4531 14.1922C19.4531 15.9887 17.9835 17.4522 16.175 17.4522V17.8522C18.2024 17.8522 19.8531 16.2116 19.8531 14.1922H19.4531ZM16.175 10.932C17.9835 10.932 19.4531 12.3958 19.4531 14.1922H19.8531C19.8531 12.1729 18.2025 10.532 16.175 10.532V10.932ZM12.8969 14.1922C12.8969 12.3957 14.3665 10.932 16.175 10.932V10.532C14.1475 10.532 12.4969 12.1729 12.4969 14.1922H12.8969Z"
    fill="white" mask="url(#path-1-inside-1_1840_663)" />
</svg>