<svg width="100" height="100" viewBox="0 0 100 100" fill="none" xmlns="http://www.w3.org/2000/svg">
<path d="M10.1972 40.5099L40.5099 10.1972C45.7511 4.95596 54.2488 4.95596 59.4901 10.1972L89.8028 40.5099C95.044 45.7511 95.044 54.2489 89.8028 59.4901L59.4901 89.8028C54.2488 95.044 45.7511 95.044 40.5099 89.8028L10.1972 59.4901C4.95596 54.2488 4.95596 45.7511 10.1972 40.5099Z" stroke="#EE7233"/>
<g clip-path="url(#clip0_1840_560)">
<path d="M47.6914 41.334V41.3341C47.6919 41.7512 47.7935 42.1541 47.9763 42.5149C40.4273 43.6581 34.6344 50.101 34.6344 57.87V57.87C34.6349 58.5065 34.6875 59.14 34.7672 59.7693C34.6769 59.8056 34.5935 59.8704 34.5168 59.9527C34.4218 60.0547 34.3329 60.1882 34.2501 60.3419C34.0846 60.6493 33.9388 61.0473 33.818 61.4616C33.5767 62.289 33.4303 63.1987 33.4303 63.6133V63.7236C33.4303 64.713 34.2538 65.5282 35.2544 65.5282H65.501C66.5013 65.5282 67.3286 64.7132 67.3286 63.7236V63.6133C67.3286 63.197 67.1803 62.2858 66.9364 61.4578C66.8143 61.0432 66.6671 60.6451 66.5001 60.3378C66.4166 60.1842 66.3268 60.0509 66.231 59.9491C66.1538 59.8672 66.0699 59.8028 65.9791 59.7668C66.0621 59.1398 66.1181 58.5086 66.1221 57.874V57.8735V57.869C66.1221 50.1001 60.3293 43.6559 52.7802 42.5127C52.9628 42.1525 53.0645 41.7507 53.0651 41.3343V41.3342C53.0654 39.8753 51.8543 38.6813 50.3783 38.6815C48.9023 38.6813 47.6911 39.875 47.6914 41.334ZM51.3515 43.7087L51.3515 43.7088L51.355 43.7088C51.3627 43.709 51.3703 43.709 51.378 43.7089C58.8641 44.2151 64.7661 50.3535 64.7668 57.8684C64.7622 58.4786 64.6876 59.0854 64.6014 59.6941H36.145C36.0623 59.0856 35.9902 58.4792 35.9898 57.8699C35.9898 50.3539 41.8927 44.2145 49.3798 43.7089C49.3866 43.709 49.3934 43.709 49.4003 43.7088L49.4003 43.7089L49.4041 43.7087C49.7326 43.6863 50.0568 43.6718 50.3783 43.6718C50.6992 43.6718 51.023 43.6874 51.3515 43.7087ZM50.3783 40.021H50.3783C51.1217 40.0208 51.7099 40.6026 51.7098 41.3338C51.7087 41.7405 51.4984 42.105 51.1698 42.352C50.9074 42.3394 50.6439 42.333 50.3783 42.333C50.1127 42.333 49.8492 42.3394 49.5868 42.352C49.2581 42.1046 49.0472 41.7397 49.0467 41.3329C49.0472 40.6022 49.6352 40.0208 50.3783 40.021ZM35.5246 61.0347L35.5246 61.0348H35.5275H65.2149V61.0348L65.218 61.0347C65.2246 61.0344 65.2311 61.034 65.2377 61.0336H65.499C65.5004 61.0343 65.5034 61.0361 65.5081 61.0404C65.5188 61.0501 65.5327 61.0679 65.5489 61.0967C65.5811 61.154 65.614 61.2405 65.6464 61.351C65.7108 61.571 65.7687 61.8701 65.8173 62.1817C65.9146 62.8056 65.9721 63.4647 65.9721 63.6133V63.7236C65.9721 63.9904 65.7733 64.1888 65.501 64.1888H35.2544C34.9828 64.1888 34.7868 63.991 34.7868 63.7236V63.6133C34.7868 63.4647 34.8435 62.8055 34.9398 62.1815C34.988 61.87 35.0454 61.5709 35.1096 61.3509C35.1418 61.2404 35.1746 61.1539 35.2067 61.0966C35.2228 61.0679 35.2367 61.0501 35.2473 61.0404C35.252 61.0361 35.255 61.0343 35.2564 61.0336H35.5037C35.5107 61.0341 35.5176 61.0344 35.5246 61.0347Z" fill="black" stroke="black" stroke-width="0.15"/>
<path d="M43.9224 35.0606L43.9239 35.0593L43.9331 35.0506C43.9412 35.0429 43.9532 35.0314 43.9684 35.0165C43.9987 34.9866 44.0417 34.9431 44.0916 34.8888C44.1918 34.7799 44.3192 34.6289 44.43 34.4591C44.5412 34.2888 44.6244 34.1086 44.6534 33.9804L44.6534 33.9804C44.6686 33.9135 44.6729 33.8701 44.6701 33.8355C44.6675 33.8025 44.658 33.7727 44.6378 33.7336L44.6378 33.7336C44.5602 33.5834 44.4569 33.4022 44.343 33.2026L44.3337 33.1863C44.2166 32.9809 44.0895 32.7575 43.9708 32.5328L44.0371 32.4977L43.9708 32.5328C43.9506 32.4946 43.9302 32.4566 43.9099 32.4185C43.6942 32.0157 43.4781 31.6123 43.4981 31.0478L43.5731 31.0504L43.4981 31.0478C43.5338 30.0406 44.1294 29.2866 44.6323 28.7533L44.6323 28.7533C44.8854 28.4848 45.1364 28.2646 45.3239 28.1116C45.4178 28.035 45.4959 27.9751 45.5507 27.9342C45.5781 27.9138 45.5997 27.8982 45.6145 27.8875L45.6315 27.8754L45.636 27.8723L45.637 27.8716L45.6372 27.8715L45.6375 27.8712L45.6376 27.8712L45.6376 27.8711L45.6803 27.9328L43.9224 35.0606ZM43.9224 35.0606C43.8505 35.1195 43.7905 35.1931 43.7459 35.2769C43.7009 35.3613 43.6723 35.4546 43.6616 35.551C43.6509 35.6473 43.6583 35.745 43.6834 35.8383C43.7086 35.9316 43.751 36.0188 43.8084 36.0944C43.8658 36.1701 43.9371 36.2327 44.0182 36.2783C44.0992 36.3239 44.1883 36.3513 44.28 36.3587C44.3717 36.3661 44.4637 36.3532 44.5504 36.321C44.6365 36.289 44.7154 36.2386 44.7824 36.1733L43.9224 35.0606ZM50.6669 28.8043L50.6128 28.7533C50.8659 28.4848 51.1171 28.2646 51.305 28.1115C51.399 28.0349 51.4773 27.975 51.5322 27.9342C51.5596 27.9138 51.5813 27.8981 51.5961 27.8875L51.6132 27.8754L51.6176 27.8722L51.6187 27.8715L51.6188 27.8714L51.6192 27.8712L51.6193 27.8711L51.6193 27.8711L51.6619 27.9328C51.758 27.865 51.8699 27.8284 51.9845 27.8276L50.6669 28.8043ZM50.6669 28.8043L50.6128 28.7533C50.1098 29.2866 49.5154 30.0407 49.4797 31.0478C49.4598 31.6123 49.6758 32.0158 49.8915 32.4185C49.9118 32.4566 49.9322 32.4946 49.9524 32.5328L50.0187 32.4977L49.9524 32.5328C50.0712 32.7576 50.1992 32.9811 50.3172 33.1865L50.3284 33.2059C50.4424 33.4043 50.5458 33.5844 50.6229 33.7336L50.6229 33.7336C50.6425 33.7715 50.651 33.8007 50.6528 33.8336C50.6547 33.8687 50.6493 33.9124 50.6338 33.9804L50.6338 33.9804C50.6046 34.1095 50.5255 34.2899 50.4151 34.4591C50.3043 34.6288 50.1759 34.7796 50.0746 34.8885C50.0241 34.9427 49.9806 34.9863 49.9499 35.0161C49.9345 35.0311 49.9223 35.0425 49.9141 35.0502L49.9047 35.0589L49.903 35.0604C49.831 35.1193 49.771 35.193 49.7263 35.2768C49.6812 35.3613 49.6526 35.4546 49.6419 35.551C49.6312 35.6473 49.6386 35.745 49.6638 35.8383C49.6889 35.9316 49.7313 36.0188 49.7887 36.0944C49.8462 36.1701 49.9174 36.2327 49.9985 36.2783C50.0796 36.3239 50.1687 36.3513 50.2604 36.3587C50.352 36.3661 50.444 36.3532 50.5308 36.321C50.6168 36.289 50.6956 36.2387 50.7626 36.1735L50.7662 36.1704L50.7801 36.1578C50.7922 36.1468 50.8097 36.1306 50.8317 36.1096C50.8756 36.0676 50.9376 36.0064 51.0102 35.9288C51.1553 35.7736 51.3439 35.5522 51.5166 35.2875C51.6892 35.0231 51.8548 34.7084 51.9418 34.3241C52.0291 33.9387 52.0194 33.4558 51.7986 33.0285C51.6972 32.8322 51.5791 32.6256 51.4612 32.4204L51.4418 32.3866C51.3302 32.1923 51.2196 31.9997 51.1227 31.8164C51.0219 31.6256 50.9474 31.4326 50.8977 31.2908C50.8762 31.2293 50.8594 31.1778 50.8471 31.1399C50.8453 31.1341 50.8435 31.1287 50.8418 31.1235C50.8363 31.1065 50.8313 31.0913 50.8274 31.0809C50.8388 30.9132 50.9186 30.6998 51.0477 30.4724C51.1811 30.2375 51.3628 29.9952 51.561 29.7851C51.76 29.574 51.9586 29.3991 52.1074 29.2769C52.1818 29.2159 52.2436 29.1681 52.2867 29.1357C52.3082 29.1195 52.3251 29.1072 52.3365 29.0989L52.3494 29.0896L52.3526 29.0874L52.3528 29.0872C52.353 29.0871 52.3531 29.087 52.3532 29.0869C52.4771 29.002 52.571 28.8763 52.6219 28.7299C52.6728 28.5834 52.6782 28.4231 52.6373 28.2731C52.5965 28.123 52.5113 27.9904 52.3935 27.896C52.2757 27.8017 52.1319 27.7508 51.9838 27.7526L50.6669 28.8043ZM50.7772 31.1672C50.7903 31.1625 50.8003 31.1547 50.8071 31.1473C50.8212 31.1319 50.8244 31.1153 50.825 31.1123L50.825 31.1121C50.8261 31.1068 50.8263 31.1027 50.8263 31.1013L50.7537 31.0987M50.7772 31.1672L52.2674 28.9638L52.2674 28.9639L52.2673 28.9639L52.2671 28.9641L52.2661 28.9648L52.2624 28.9674L52.2485 28.9774C52.2364 28.9862 52.2188 28.999 52.1965 29.0158C52.1519 29.0493 52.0884 29.0984 52.0122 29.161C51.8599 29.286 51.6564 29.4652 51.4518 29.6822C51.2463 29.9002 51.0572 30.152 50.9173 30.3983C50.7785 30.6428 50.6837 30.8896 50.6764 31.096L50.7514 31.0986L50.7537 31.0987M50.7772 31.1672C50.7767 31.1658 50.7762 31.1644 50.7758 31.163C50.7645 31.1281 50.7571 31.1055 50.7537 31.0987M50.7772 31.1672L50.7537 31.0987M45.9972 27.7526L45.997 27.7526L45.5315 35.2876C45.5315 35.2876 45.5316 35.2875 45.5316 35.2875C45.7037 35.0237 45.8743 34.7089 45.9615 34.3241C46.0489 33.938 46.0341 33.4554 45.8135 33.0285L45.7469 33.063L45.8135 33.0285C45.7122 32.8323 45.595 32.6259 45.4781 32.4206C45.471 32.4083 45.464 32.396 45.457 32.3836C45.3468 32.1904 45.2376 31.9988 45.1412 31.8164C45.0403 31.6254 44.9648 31.4323 44.9143 31.2904C44.893 31.2307 44.8763 31.1805 44.8638 31.1429C44.8614 31.1358 44.8592 31.1292 44.8571 31.123C44.8515 31.106 44.8464 31.091 44.8424 31.0805C44.8539 30.9129 44.9336 30.6996 45.0627 30.4724C45.1961 30.2375 45.3778 29.9952 45.5759 29.7851C45.775 29.574 45.9735 29.3991 46.1223 29.2769C46.1967 29.2159 46.2585 29.1681 46.3016 29.1357C46.3232 29.1195 46.34 29.1072 46.3514 29.0989L46.3643 29.0896L46.3675 29.0874L46.3682 29.0869C46.4921 29.0019 46.5861 28.8762 46.6369 28.7296C46.6878 28.5829 46.6931 28.4224 46.6521 28.2723C46.6111 28.1222 46.5257 27.9896 46.4077 27.8954C46.2896 27.8011 46.1455 27.7505 45.9972 27.7526ZM44.8213 31.1481C44.8146 31.1552 44.805 31.1625 44.7927 31.167C44.7927 31.1668 44.7926 31.1666 44.7926 31.1664C44.7803 31.1296 44.7724 31.1058 44.7687 31.0987L44.8413 31.1013C44.8412 31.1028 44.841 31.107 44.8399 31.1125L44.8399 31.1127C44.8392 31.1158 44.8358 31.1327 44.8213 31.1481ZM57.9692 27.7526L57.9691 27.7526L57.6471 27.9328L57.6044 27.8711L57.6044 27.8711L57.6043 27.8712L57.604 27.8714L57.6038 27.8715L57.6028 27.8722L57.5983 27.8754L57.5812 27.8875C57.5664 27.8981 57.5447 27.9138 57.5173 27.9342C57.4624 27.9751 57.3841 28.0349 57.2901 28.1115C57.1022 28.2646 56.851 28.4848 56.5979 28.7533L56.6525 28.8047L56.5979 28.7533C56.0949 29.2866 55.5005 30.0407 55.4649 31.0478C55.4449 31.6123 55.6609 32.0157 55.8766 32.4185C55.8969 32.4566 55.9173 32.4946 55.9375 32.5328L56.0038 32.4977L55.9375 32.5328C56.0562 32.7575 56.1834 32.9809 56.3005 33.1863L56.3099 33.2028C56.4236 33.4023 56.527 33.5835 56.6045 33.7336L56.6045 33.7336C56.6248 33.7727 56.6342 33.8025 56.6369 33.8355C56.6396 33.8701 56.6353 33.9135 56.6202 33.9804L56.6933 33.997L56.6202 33.9804C56.5912 34.1084 56.5069 34.2885 56.3956 34.4591C56.2847 34.6289 56.1573 34.7799 56.0572 34.8888C56.0072 34.9431 55.9643 34.9866 55.9339 35.0165C55.9188 35.0314 55.9068 35.0429 55.8986 35.0506L55.8894 35.0593L55.888 35.0606C55.816 35.1195 55.7561 35.1931 55.7115 35.2769C55.6665 35.3614 55.6379 35.4546 55.6272 35.551C55.6165 35.6473 55.6239 35.745 55.649 35.8383C55.6742 35.9316 55.7166 36.0188 55.774 36.0944C55.8314 36.1701 55.9027 36.2327 55.9837 36.2783C56.0649 36.3239 56.1539 36.3513 56.2456 36.3586C56.3372 36.366 56.4293 36.3532 56.516 36.321C56.6021 36.289 56.6809 36.2386 56.748 36.1734L56.7515 36.1702L56.7654 36.1576C56.7774 36.1466 56.7947 36.1304 56.8165 36.1094C56.8601 36.0675 56.9216 36.0062 56.9938 35.9286C57.138 35.7735 57.3256 35.5521 57.4983 35.2875L57.4983 35.2875C57.6704 35.0238 57.841 34.7089 57.9282 34.3241L57.9282 34.3241C58.0154 33.9386 58.0057 33.4558 57.7849 33.0285C57.6835 32.8322 57.5651 32.6255 57.447 32.4204L57.4279 32.3873C57.3159 32.1927 57.2049 31.9999 57.1079 31.8164C57.0071 31.6256 56.9326 31.4326 56.8829 31.2908C56.8614 31.2293 56.8447 31.1778 56.8324 31.14C56.8305 31.1342 56.8287 31.1287 56.827 31.1235C56.8214 31.1064 56.8165 31.0913 56.8126 31.0809C56.824 30.9131 56.903 30.6995 57.0313 30.4722C57.1638 30.2373 57.3446 29.9951 57.5426 29.7851C57.7417 29.574 57.9402 29.3991 58.0891 29.2769C58.1634 29.2159 58.2253 29.1681 58.2684 29.1357C58.2899 29.1195 58.3068 29.1071 58.3182 29.0989L58.331 29.0896L58.3342 29.0874L58.3345 29.0872C58.3347 29.0871 58.3348 29.087 58.3349 29.0869C58.4585 29.0021 58.5522 28.8768 58.6032 28.7309C58.6541 28.5847 58.6598 28.4249 58.6195 28.2751C58.5791 28.1253 58.4946 27.9927 58.3775 27.8981C58.2604 27.8033 58.1171 27.7518 57.9692 27.7526ZM56.761 31.1631C56.7614 31.1644 56.7619 31.1658 56.7623 31.1672C56.7755 31.1625 56.7855 31.1547 56.7923 31.1473C56.8063 31.132 56.8096 31.1153 56.8102 31.1124L56.8102 31.1121C56.8113 31.1068 56.8115 31.1027 56.8115 31.1013L56.7389 31.0987C56.7423 31.1056 56.7497 31.1282 56.761 31.1631L56.761 31.1631Z" fill="black" stroke="black" stroke-width="0.15"/>
</g>
<defs>
<clipPath id="clip0_1840_560">
<rect width="38.5695" height="40.1765" fill="white" transform="translate(30.7153 25.713)"/>
</clipPath>
</defs>
</svg>
