<svg width="39" height="27" viewBox="0 0 39 27" fill="none" xmlns="http://www.w3.org/2000/svg">
<rect x="9.57483" y="2" width="26.5" height="18.6667" rx="1" stroke="black" stroke-width="1.5"/>
<path d="M10.8998 7.33337H34.7498" stroke="black" stroke-width="1.5" stroke-linecap="square"/>
<path d="M11.5623 15.3333L4.27478 18.6666L10.2373 23.9999L17.5248 19.3333L11.5623 15.3333Z" fill="white"/>
<path d="M0.257615 25.5173L0.257609 25.5173C0.197952 25.0478 0.488175 24.6038 0.917935 24.5348L8.51687 23.3144L8.51689 23.3144C10.1495 23.0531 11.6937 22.4375 13.1061 21.4835L13.1061 21.4835L16.7786 19.005L16.7787 19.0049C17.3821 18.5985 17.759 17.8521 17.759 17.055C17.759 15.7976 16.8495 14.784 15.7429 14.784C14.7944 14.784 13.8646 14.9842 12.9824 15.3799L0.257615 25.5173ZM0.257615 25.5173C0.312794 25.9481 0.642759 26.2663 1.02946 26.2663C1.06611 26.2663 1.10365 26.2628 1.13885 26.2576L1.13952 26.2575L8.73845 25.0371L8.73847 25.0371C10.5799 24.7406 12.3201 24.0456 13.912 22.9722L13.912 22.9722L17.5845 20.4937L0.257615 25.5173ZM7.15665 18.001L12.9823 15.3799L17.5845 20.4936C18.6546 19.7731 19.3181 18.456 19.3181 17.055C19.3181 14.8481 17.7208 13.0436 15.7429 13.0436C14.5933 13.0436 13.4686 13.2863 12.4 13.7682L6.57405 16.3893C6.57402 16.3893 6.57399 16.3894 6.57397 16.3894C6.17203 16.5688 5.98238 17.0753 6.14026 17.5164C6.29867 17.9591 6.75478 18.1859 7.15646 18.0011C7.15652 18.0011 7.15658 18.001 7.15665 18.001ZM1.1316 26.2081C1.09804 26.213 1.06302 26.2163 1.02946 26.2163C0.671982 26.2163 0.359737 25.9211 0.30721 25.511C0.250306 25.0632 0.527533 24.6482 0.925864 24.5842L8.52479 23.3638L1.1316 26.2081Z" fill="black" stroke="black" stroke-width="0.1"/>
<path d="M22.3233 25.0606L22.3233 25.0606C22.9181 25.8295 23.8422 26.27 24.8556 26.27C26.2011 26.27 27.3925 25.471 27.8172 24.2758L28.8972 21.2536C28.8972 21.2535 28.8972 21.2534 28.8973 21.2534C28.9864 21.0101 28.9415 20.7417 28.7812 20.5348C28.621 20.3264 28.3647 20.2051 28.0928 20.2051H23.2992C22.9363 20.2051 22.6112 20.4226 22.4932 20.7481L22.4932 20.7483L21.8924 22.4289L21.8924 22.429C21.5718 23.3296 21.7283 24.2898 22.3233 25.0606ZM26.2066 23.771L26.2066 23.7711C26.0388 24.2429 25.573 24.5379 25.0624 24.6105C24.552 24.6831 24.0113 24.5312 23.6983 24.1271C23.4288 23.7763 23.357 23.3423 23.5029 22.9338C23.5029 22.9338 23.5029 22.9338 23.5029 22.9338L23.9097 21.7963H26.9129L26.2066 23.771Z" fill="black" stroke="black" stroke-width="0.1"/>
<path d="M17.5821 25.0606L17.5821 25.0606C18.1769 25.8295 19.101 26.27 20.1144 26.27C21.4599 26.27 22.6512 25.471 23.076 24.2758L24.156 21.2536C24.156 21.2535 24.156 21.2534 24.156 21.2534C24.2451 21.0101 24.2003 20.7417 24.04 20.5348C23.8798 20.3264 23.6235 20.2051 23.3516 20.2051H18.558C18.195 20.2051 17.87 20.4226 17.752 20.7481L17.752 20.7483L17.1512 22.4289L17.1511 22.429C16.8305 23.3296 16.9871 24.2898 17.5821 25.0606ZM21.4654 23.771L21.4654 23.7711C21.2976 24.2429 20.8318 24.5379 20.3212 24.6105C19.8108 24.6831 19.2701 24.5312 18.9571 24.1271C18.6876 23.7763 18.6158 23.3423 18.7617 22.9338C18.7617 22.9338 18.7617 22.9338 18.7617 22.9338L19.1685 21.7963H22.1717L21.4654 23.771Z" fill="black" stroke="black" stroke-width="0.1"/>
<path d="M13.4829 23.5104C13.4388 23.1018 13.0983 22.8125 12.7418 22.8573C12.3759 22.9065 12.1142 23.2778 12.1569 23.6864C12.3091 25.1314 13.4054 26.22 14.7087 26.22C15.817 26.22 16.7958 25.4326 17.1429 24.2605L13.4829 23.5104ZM13.4829 23.5104C13.5563 24.2053 14.0824 24.7288 14.7087 24.7288M13.4829 23.5104L14.7087 24.7288M14.7087 24.7288C15.2401 24.7288 15.7102 24.3515 15.8771 23.7878L14.7087 24.7288ZM12.1072 23.6916L12.1072 23.6916C12.2616 25.1576 13.3756 26.27 14.7087 26.27C15.8421 26.27 16.8383 25.4651 17.1909 24.2747L18.0935 21.2521L18.0935 21.2521C18.2161 20.8399 18.0191 20.3888 17.6412 20.2471L17.6411 20.247C17.2571 20.1041 16.8549 20.3386 16.7318 20.7508C16.7318 20.7508 16.7318 20.7508 16.7318 20.7508L15.8292 23.7735L15.8291 23.7736C15.6676 24.319 15.2151 24.6788 14.7087 24.6788C14.1123 24.6788 13.6038 24.1792 13.5326 23.5052L13.5326 23.5051C13.486 23.0733 13.1242 22.7589 12.7356 22.8077L12.7356 22.8077L12.7351 22.8077C12.3378 22.8612 12.0622 23.2611 12.1072 23.6916Z" fill="black" stroke="black" stroke-width="0.1"/>
<path d="M0.652162 9.3916L0.625431 9.43386C0.768271 9.52422 0.929394 9.56686 1.09002 9.56686C1.3592 9.56686 1.62651 9.44387 1.78849 9.21309C1.7885 9.21307 1.78851 9.21306 1.78852 9.21305L2.31954 8.46161C2.31954 8.46161 2.31955 8.46161 2.31955 8.46161C3.80983 6.35349 6.30444 5.09322 8.99358 5.09322C9.45468 5.09322 9.83393 4.7395 9.83393 4.29761C9.83393 3.85571 9.45468 3.502 8.99358 3.502C5.74397 3.502 2.72664 5.02584 0.922733 7.57775L0.922729 7.57776L0.39164 8.32929M0.652162 9.3916L0.625584 9.43395C0.238698 9.19116 0.132526 8.69516 0.39164 8.32929M0.652162 9.3916C0.288598 9.16345 0.190594 8.69968 0.432443 8.35819M0.652162 9.3916C0.786523 9.4766 0.938271 9.51686 1.09002 9.51686C1.34451 9.51686 1.59585 9.40055 1.7476 9.18432L0.432443 8.35819M0.39164 8.32929L0.432443 8.35819M0.39164 8.32929L0.39161 8.32933L0.432443 8.35819" fill="black" stroke="black" stroke-width="0.1"/>
</svg>
