<svg width="100" height="100" viewBox="0 0 100 100" fill="none" xmlns="http://www.w3.org/2000/svg">
<path d="M10.1972 40.5099L40.5099 10.1971C45.7511 4.9559 54.2488 4.95589 59.4901 10.1971L89.8028 40.5099C95.044 45.7511 95.044 54.2488 89.8028 59.49L59.4901 89.8028C54.2488 95.044 45.7511 95.044 40.5099 89.8028L10.1972 59.49C4.95596 54.2488 4.95596 45.7511 10.1972 40.5099Z" stroke="#EE7233"/>
<g clip-path="url(#clip0_1840_576)">
<mask id="path-2-inside-1_1840_576" fill="white">
<path fill-rule="evenodd" clip-rule="evenodd" d="M39.0018 29.8097C37.0881 29.8097 35.5366 31.3611 35.5366 33.2749V63.3069C35.5366 65.2207 37.0881 66.7721 39.0018 66.7721H55.1729C57.0867 66.7721 58.6381 65.2207 58.6381 63.3069V59.8416H66.7236C68.6375 59.8416 70.1889 58.2903 70.1889 56.3764V44.8257C70.1889 42.9118 68.6375 41.3604 66.7236 41.3604H58.6381V33.2749C58.6381 31.3611 57.0867 29.8097 55.1729 29.8097H39.0018ZM56.328 41.3604V33.2749C56.328 32.637 55.8108 32.1198 55.1729 32.1198H39.0018C38.3639 32.1198 37.8468 32.637 37.8468 33.2749V63.3069C37.8468 63.9448 38.3639 64.4619 39.0018 64.4619H55.1729C55.8108 64.4619 56.328 63.9448 56.328 63.3069V59.8416H48.2424C46.3287 59.8416 44.7772 58.2903 44.7772 56.3764V44.8257C44.7772 42.9118 46.3287 41.3604 48.2424 41.3604H56.328ZM47.0874 44.8257C47.0874 44.1877 47.6045 43.6706 48.2424 43.6706H66.7236C67.3616 43.6706 67.8787 44.1877 67.8787 44.8257V45.9807H47.0874V44.8257ZM47.0874 48.2909V56.3764C47.0874 57.0144 47.6045 57.5315 48.2424 57.5315H66.7236C67.3616 57.5315 67.8787 57.0144 67.8787 56.3764V48.2909H47.0874ZM43.6221 35.3916C43.6221 34.7537 44.1392 34.2366 44.7771 34.2366H49.3974C50.0354 34.2366 50.5525 34.7537 50.5525 35.3916C50.5525 36.0296 50.0354 36.5467 49.3974 36.5467H44.7771C44.1392 36.5467 43.6221 36.0296 43.6221 35.3916Z"/>
</mask>
<path fill-rule="evenodd" clip-rule="evenodd" d="M39.0018 29.8097C37.0881 29.8097 35.5366 31.3611 35.5366 33.2749V63.3069C35.5366 65.2207 37.0881 66.7721 39.0018 66.7721H55.1729C57.0867 66.7721 58.6381 65.2207 58.6381 63.3069V59.8416H66.7236C68.6375 59.8416 70.1889 58.2903 70.1889 56.3764V44.8257C70.1889 42.9118 68.6375 41.3604 66.7236 41.3604H58.6381V33.2749C58.6381 31.3611 57.0867 29.8097 55.1729 29.8097H39.0018ZM56.328 41.3604V33.2749C56.328 32.637 55.8108 32.1198 55.1729 32.1198H39.0018C38.3639 32.1198 37.8468 32.637 37.8468 33.2749V63.3069C37.8468 63.9448 38.3639 64.4619 39.0018 64.4619H55.1729C55.8108 64.4619 56.328 63.9448 56.328 63.3069V59.8416H48.2424C46.3287 59.8416 44.7772 58.2903 44.7772 56.3764V44.8257C44.7772 42.9118 46.3287 41.3604 48.2424 41.3604H56.328ZM47.0874 44.8257C47.0874 44.1877 47.6045 43.6706 48.2424 43.6706H66.7236C67.3616 43.6706 67.8787 44.1877 67.8787 44.8257V45.9807H47.0874V44.8257ZM47.0874 48.2909V56.3764C47.0874 57.0144 47.6045 57.5315 48.2424 57.5315H66.7236C67.3616 57.5315 67.8787 57.0144 67.8787 56.3764V48.2909H47.0874ZM43.6221 35.3916C43.6221 34.7537 44.1392 34.2366 44.7771 34.2366H49.3974C50.0354 34.2366 50.5525 34.7537 50.5525 35.3916C50.5525 36.0296 50.0354 36.5467 49.3974 36.5467H44.7771C44.1392 36.5467 43.6221 36.0296 43.6221 35.3916Z" fill="black"/>
<path d="M58.6381 59.8416V59.4416H58.2381V59.8416H58.6381ZM58.6381 41.3604H58.2381V41.7604H58.6381V41.3604ZM56.328 41.3604V41.7604H56.728V41.3604H56.328ZM56.328 59.8416H56.728V59.4416H56.328V59.8416ZM67.8787 45.9807V46.3807H68.2787V45.9807H67.8787ZM47.0874 45.9807H46.6874V46.3807H47.0874V45.9807ZM47.0874 48.2909V47.8909H46.6874V48.2909H47.0874ZM67.8787 48.2909H68.2787V47.8909H67.8787V48.2909ZM35.9366 33.2749C35.9366 31.582 37.309 30.2097 39.0018 30.2097V29.4097C36.8671 29.4097 35.1366 31.1402 35.1366 33.2749H35.9366ZM35.9366 63.3069V33.2749H35.1366V63.3069H35.9366ZM39.0018 66.3721C37.309 66.3721 35.9366 64.9998 35.9366 63.3069H35.1366C35.1366 65.4416 36.8672 67.1721 39.0018 67.1721V66.3721ZM55.1729 66.3721H39.0018V67.1721H55.1729V66.3721ZM58.2381 63.3069C58.2381 64.9998 56.8658 66.3721 55.1729 66.3721V67.1721C57.3077 67.1721 59.0381 65.4416 59.0381 63.3069H58.2381ZM58.2381 59.8416V63.3069H59.0381V59.8416H58.2381ZM66.7236 59.4416H58.6381V60.2416H66.7236V59.4416ZM69.7889 56.3764C69.7889 58.0693 68.4166 59.4416 66.7236 59.4416V60.2416C68.8584 60.2416 70.5889 58.5112 70.5889 56.3764H69.7889ZM69.7889 44.8257V56.3764H70.5889V44.8257H69.7889ZM66.7236 41.7604C68.4166 41.7604 69.7889 43.1327 69.7889 44.8257H70.5889C70.5889 42.6909 68.8584 40.9604 66.7236 40.9604V41.7604ZM58.6381 41.7604H66.7236V40.9604H58.6381V41.7604ZM58.2381 33.2749V41.3604H59.0381V33.2749H58.2381ZM55.1729 30.2097C56.8658 30.2097 58.2381 31.582 58.2381 33.2749H59.0381C59.0381 31.1402 57.3077 29.4097 55.1729 29.4097V30.2097ZM39.0018 30.2097H55.1729V29.4097H39.0018V30.2097ZM55.928 33.2749V41.3604H56.728V33.2749H55.928ZM55.1729 32.5198C55.5899 32.5198 55.928 32.8579 55.928 33.2749H56.728C56.728 32.4161 56.0318 31.7198 55.1729 31.7198V32.5198ZM39.0018 32.5198H55.1729V31.7198H39.0018V32.5198ZM38.2468 33.2749C38.2468 32.8579 38.5848 32.5198 39.0018 32.5198V31.7198C38.143 31.7198 37.4468 32.4161 37.4468 33.2749H38.2468ZM38.2468 63.3069V33.2749H37.4468V63.3069H38.2468ZM39.0018 64.0619C38.5848 64.0619 38.2468 63.7239 38.2468 63.3069H37.4468C37.4468 64.1657 38.143 64.8619 39.0018 64.8619V64.0619ZM55.1729 64.0619H39.0018V64.8619H55.1729V64.0619ZM55.928 63.3069C55.928 63.7239 55.5899 64.0619 55.1729 64.0619V64.8619C56.0318 64.8619 56.728 64.1657 56.728 63.3069H55.928ZM55.928 59.8416V63.3069H56.728V59.8416H55.928ZM48.2424 60.2416H56.328V59.4416H48.2424V60.2416ZM44.3772 56.3764C44.3772 58.5112 46.1077 60.2416 48.2424 60.2416V59.4416C46.5496 59.4416 45.1772 58.0693 45.1772 56.3764H44.3772ZM44.3772 44.8257V56.3764H45.1772V44.8257H44.3772ZM48.2424 40.9604C46.1078 40.9604 44.3772 42.6909 44.3772 44.8257H45.1772C45.1772 43.1327 46.5496 41.7604 48.2424 41.7604V40.9604ZM56.328 40.9604H48.2424V41.7604H56.328V40.9604ZM48.2424 43.2706C47.3836 43.2706 46.6874 43.9668 46.6874 44.8257H47.4874C47.4874 44.4086 47.8254 44.0706 48.2424 44.0706V43.2706ZM66.7236 43.2706H48.2424V44.0706H66.7236V43.2706ZM68.2787 44.8257C68.2787 43.9668 67.5825 43.2706 66.7236 43.2706V44.0706C67.1407 44.0706 67.4787 44.4086 67.4787 44.8257H68.2787ZM68.2787 45.9807V44.8257H67.4787V45.9807H68.2787ZM47.0874 46.3807H67.8787V45.5807H47.0874V46.3807ZM46.6874 44.8257V45.9807H47.4874V44.8257H46.6874ZM47.4874 56.3764V48.2909H46.6874V56.3764H47.4874ZM48.2424 57.1315C47.8254 57.1315 47.4874 56.7935 47.4874 56.3764H46.6874C46.6874 57.2353 47.3836 57.9315 48.2424 57.9315V57.1315ZM66.7236 57.1315H48.2424V57.9315H66.7236V57.1315ZM67.4787 56.3764C67.4787 56.7935 67.1407 57.1315 66.7236 57.1315V57.9315C67.5825 57.9315 68.2787 57.2353 68.2787 56.3764H67.4787ZM67.4787 48.2909V56.3764H68.2787V48.2909H67.4787ZM47.0874 48.6909H67.8787V47.8909H47.0874V48.6909ZM44.7771 33.8366C43.9183 33.8366 43.2221 34.5328 43.2221 35.3916H44.0221C44.0221 34.9746 44.3601 34.6366 44.7771 34.6366V33.8366ZM49.3974 33.8366H44.7771V34.6366H49.3974V33.8366ZM50.9525 35.3916C50.9525 34.5328 50.2563 33.8366 49.3974 33.8366V34.6366C49.8145 34.6366 50.1525 34.9746 50.1525 35.3916H50.9525ZM49.3974 36.9467C50.2563 36.9467 50.9525 36.2505 50.9525 35.3916H50.1525C50.1525 35.8087 49.8145 36.1467 49.3974 36.1467V36.9467ZM44.7771 36.9467H49.3974V36.1467H44.7771V36.9467ZM43.2221 35.3916C43.2221 36.2505 43.9183 36.9467 44.7771 36.9467V36.1467C44.3601 36.1467 44.0221 35.8087 44.0221 35.3916H43.2221Z" fill="white" mask="url(#path-2-inside-1_1840_576)"/>
</g>
<defs>
<clipPath id="clip0_1840_576">
<rect width="35.3553" height="36.9624" fill="white" transform="translate(35.5366 29.8097)"/>
</clipPath>
</defs>
</svg>
