<svg width="101" height="100" viewBox="0 0 101 100" fill="none" xmlns="http://www.w3.org/2000/svg">
<path d="M10.6972 40.5099L41.0099 10.1972C46.2511 4.95596 54.7488 4.95596 59.9901 10.1972L90.3028 40.5099C95.544 45.7511 95.544 54.2489 90.3028 59.4901L59.9901 89.8028C54.7488 95.044 46.2511 95.044 41.0099 89.8028L10.6972 59.4901C5.45596 54.2488 5.45596 45.7511 10.6972 40.5099Z" stroke="#EE7233"/>
<g clip-path="url(#clip0_1840_569)">
<path d="M58.1558 30.5199L58.2115 30.5522C58.3985 30.6606 58.5432 30.8292 58.622 31.0305C58.7008 31.2317 58.709 31.4538 58.6452 31.6603L58.6452 31.6605L54.3037 45.7673L54.2041 46.0908H54.5426H62.553H62.5531C62.7397 46.0907 62.9222 46.1453 63.0781 46.2478C63.2341 46.3502 63.3566 46.4961 63.4305 46.6674C63.5045 46.8387 63.5267 47.0279 63.4943 47.2117C63.462 47.3954 63.3766 47.5657 63.2486 47.7014L63.2484 47.7016L43.9637 68.1916L43.9636 68.1917C43.8157 68.349 43.6189 68.4515 43.4053 68.4826C43.1917 68.5137 42.9738 68.4715 42.7872 68.3629C42.6006 68.2543 42.4563 68.0858 42.3778 67.8846C42.2993 67.6835 42.2912 67.4618 42.3549 67.2555L42.355 67.2553L46.6964 53.1461L46.796 52.8226H46.4575H38.4471H38.447C38.2604 52.8227 38.0779 52.7681 37.922 52.6656L37.7847 52.8745L37.922 52.6656C37.7661 52.5632 37.6436 52.4173 37.5696 52.246C37.4956 52.0747 37.4735 51.8855 37.5058 51.7017C37.5381 51.518 37.6236 51.3477 37.7516 51.212L37.7517 51.2118L57.0364 30.7218L57.0365 30.7217C57.1842 30.5647 57.3807 30.4622 57.594 30.431C57.7865 30.4028 57.9824 30.4341 58.1558 30.5199ZM41.0541 50.4906L40.6575 50.912H41.2362H48.0895H48.0895C48.239 50.912 48.3864 50.947 48.5199 51.0143C48.6534 51.0817 48.7692 51.1794 48.8581 51.2996C48.9469 51.4199 49.0063 51.5593 49.0314 51.7067C49.0565 51.854 49.0467 52.0052 49.0028 52.1481L45.7051 62.8583L46.1261 63.1032L59.9436 48.4227L60.3402 48.0014H59.7616H52.9107H52.9106C52.7611 48.0014 52.6137 47.9664 52.4802 47.899C52.3467 47.8317 52.2309 47.734 52.1421 47.6138C52.0532 47.4935 51.9939 47.3541 51.9687 47.2067C51.9436 47.0594 51.9534 46.9081 51.9973 46.7652L55.295 36.0551L54.8741 35.8101L41.0541 50.4906Z" fill="black" stroke="white" stroke-width="0.5"/>
</g>
<defs>
<clipPath id="clip0_1840_569">
<rect width="38.5695" height="38.5695" fill="white" transform="translate(31.2155 30.1719)"/>
</clipPath>
</defs>
</svg>
